<svg width="19" height="38" viewBox="0 0 19 38" fill="none" xmlns="http://www.w3.org/2000/svg">
<rect width="19" height="38" fill="#817C7C"/>
<g id="Mobile" clip-path="url(#clip0_0_1)">
<rect width="320" height="6603" transform="translate(-22 -12)" fill="#FCFCFC"/>
<g id="starter page">
<rect id="Rectangle 2" x="-22" y="-12" width="320" height="502" fill="#84A178"/>
<g id="header">
<g id="logo">
<path id="Vector" d="M18.4058 16.7549C20.3215 11.5702 16.3544 8.73211 13.7248 6.86682C13.222 6.48574 12.7192 6.12973 12.3119 5.80381C11.584 5.19132 11.0479 4.38326 10.7671 3.47571C10.4863 2.56816 10.4728 1.59929 10.7281 0.684293C10.7543 0.58856 10.7537 0.487476 10.7262 0.392087C10.6987 0.296697 10.6455 0.210668 10.5724 0.143396C10.4992 0.0761238 10.4089 0.0301974 10.3114 0.0106302C10.2138 -0.008937 10.1127 -0.00139141 10.0192 0.0324434C9.1336 0.381861 8.31021 0.871156 7.58059 1.48155C6.87957 2.02055 6.31163 2.71247 5.92031 3.50428C5.52898 4.29609 5.32467 5.16675 5.32304 6.04951C4.82721 6.43932 4.38884 6.89675 4.02079 7.40836C3.34467 8.32879 3.00568 9.45271 3.06045 10.5924C2.25508 11.3301 1.65525 12.2634 1.31951 13.3013C0.983758 14.3392 0.92356 15.4462 1.1448 16.5142C0.824394 16.7072 0.576395 16.9998 0.438874 17.3471C0.301354 17.6943 0.28191 18.0769 0.383544 18.4362C0.485177 18.7955 0.702268 19.1116 1.00147 19.336C1.30067 19.5603 1.66544 19.6805 2.03977 19.6782H2.07497V22.6265C2.07497 22.9257 2.19416 23.2127 2.40632 23.4243C2.61847 23.6358 2.90623 23.7547 3.20627 23.7547H4.08616L5.51913 36.1398C5.54893 36.4155 5.67993 36.6705 5.88693 36.8557C6.09394 37.0408 6.3623 37.143 6.64036 37.1427H12.6035C12.8818 37.1421 13.1502 37.0396 13.3578 36.8548C13.5654 36.6699 13.6978 36.4155 13.7298 36.1398L15.1628 23.7547H16.0427C16.3427 23.7547 16.6304 23.6358 16.8426 23.4243C17.0548 23.2127 17.174 22.9257 17.174 22.6265V19.6782H17.2092C17.6639 19.6782 18.1 19.498 18.4215 19.1773C18.7431 18.8567 18.9237 18.4218 18.9237 17.9683C18.926 17.742 18.8826 17.5175 18.7963 17.3082C18.7099 17.0989 18.5822 16.909 18.4209 16.7498L18.4058 16.7549ZM5.49902 7.34819C6.22305 10.0609 9.0186 11.1289 11.5678 12.0816C11.6363 12.1237 11.7133 12.1502 11.7933 12.1592C11.8732 12.1683 11.9542 12.1597 12.0304 12.134C12.1067 12.1083 12.1763 12.0662 12.2344 12.0106C12.2925 11.9551 12.3376 11.8874 12.3665 11.8125C12.3954 11.7376 12.4074 11.6573 12.4017 11.5773C12.396 11.4972 12.3726 11.4194 12.3333 11.3493C12.2941 11.2793 12.2398 11.2187 12.1744 11.172C12.109 11.1252 12.0341 11.0934 11.9549 11.0788C9.20966 10.0408 6.62025 9.07308 6.42416 6.30022C6.37821 5.53799 6.52168 4.77625 6.84183 4.0826C7.16198 3.38895 7.64889 2.78485 8.25937 2.32394C8.64182 2.00659 9.05246 1.72463 9.48619 1.48155C9.45826 1.82865 9.45826 2.17742 9.48619 2.52451C9.54438 3.31909 9.76221 4.09389 10.1267 4.80283C10.4912 5.51176 10.995 6.14035 11.608 6.65121C12.0253 7.00722 12.5432 7.37326 13.1164 7.76437C14.4387 8.71205 15.9421 9.77006 16.8974 11.2041C17.4071 11.9396 17.7243 12.7905 17.82 13.6794C17.9157 14.5683 17.7869 15.4669 17.4455 16.2936H17.2343H15.2231C10.6426 16.2936 5.37835 15.03 4.33756 11.4899C4.13109 10.7616 4.13278 9.9903 4.34244 9.26292C4.5521 8.53553 4.9614 7.88104 5.52415 7.37326L5.49902 7.34819ZM9.62194 24.4417L11.3013 26.1164L9.62194 27.7912L7.9426 26.1064L9.62194 24.4417ZM13.4734 28.8391L12.0857 30.2231L10.4063 28.5483L12.0857 26.8786L13.5438 28.3277L13.4734 28.8391ZM9.62194 32.68L7.9426 31.0053L9.62194 29.3305L11.3013 31.0053L9.62194 32.68ZM8.85266 28.5583L7.17332 30.2331L5.77555 28.8391L5.71522 28.3377L7.17332 26.8886L8.85266 28.5583ZM6.39903 31.0053L6.06215 31.3412L5.97667 30.5791L6.39903 31.0053ZM6.22305 32.7201L7.17332 31.7724L9.01859 33.6277C9.02804 33.6652 9.0398 33.702 9.05379 33.738H6.33868L6.22305 32.7201ZM12.0756 31.7724L13.0259 32.7201L12.9102 33.723H10.1197L12.0756 31.7724ZM13.1818 31.3412L12.8449 31.0053L13.2723 30.5791L13.1818 31.3412ZM13.6845 26.9588L12.8449 26.1064L13.9108 25.0434L13.6845 26.9588ZM12.0706 25.3442L10.4767 23.7597H13.6644L12.0706 25.3442ZM7.16831 25.3442L5.57443 23.7597H8.76216L7.16831 25.3442ZM12.5985 36.0546H6.64036C6.6314 36.0535 6.62305 36.0495 6.61667 36.0431C6.61029 36.0368 6.60623 36.0284 6.60516 36.0195L6.46438 34.8161H12.7795L12.6438 36.0195C12.6425 36.0292 12.6377 36.0382 12.6303 36.0447C12.6229 36.0511 12.6134 36.0547 12.6035 36.0546H12.5985ZM17.2092 18.5851H15.4594C15.3834 18.5778 15.3066 18.5864 15.2342 18.6104C15.1617 18.6345 15.095 18.6733 15.0385 18.7246C14.9819 18.7758 14.9367 18.8382 14.9058 18.9079C14.8749 18.9776 14.8589 19.0529 14.8589 19.1291C14.8589 19.2053 14.8749 19.2806 14.9058 19.3503C14.9367 19.4199 14.9819 19.4824 15.0385 19.5336C15.095 19.5849 15.1617 19.6237 15.2342 19.6478C15.3066 19.6718 15.3834 19.6804 15.4594 19.6731H16.0829V22.6215C16.0817 22.6312 16.0769 22.6402 16.0695 22.6467C16.0621 22.6531 16.0525 22.6567 16.0427 22.6566H3.18615C3.1763 22.6567 3.16676 22.6531 3.15934 22.6467C3.15193 22.6402 3.14716 22.6312 3.14593 22.6215V19.6731H13.1063C13.242 19.6601 13.3679 19.5972 13.4595 19.4966C13.5512 19.396 13.6019 19.265 13.6019 19.1291C13.6019 18.9932 13.5512 18.8622 13.4595 18.7616C13.3679 18.661 13.242 18.5981 13.1063 18.5851H2.04481C1.95857 18.5928 1.87165 18.5825 1.7896 18.5549C1.70756 18.5273 1.63217 18.483 1.56825 18.4247C1.50433 18.3665 1.45329 18.2956 1.41837 18.2166C1.38344 18.1376 1.3654 18.0521 1.3654 17.9658C1.3654 17.8794 1.38344 17.794 1.41837 17.715C1.45329 17.636 1.50433 17.5651 1.56825 17.5068C1.63217 17.4486 1.70756 17.4042 1.7896 17.3766C1.87165 17.349 1.95857 17.3388 2.04481 17.3465H3.18615C3.3218 17.3335 3.44772 17.2706 3.53936 17.17C3.63099 17.0694 3.68177 16.9384 3.68177 16.8025C3.68177 16.6666 3.63099 16.5356 3.53936 16.435C3.44772 16.3344 3.3218 16.2715 3.18615 16.2585H2.18056C2.03653 15.4955 2.05993 14.7105 2.24915 13.9575C2.43836 13.2044 2.7889 12.5011 3.27665 11.8961C3.62861 12.9892 4.53364 14.4834 6.79623 15.6718C8.92306 16.7799 11.7387 17.3465 15.1628 17.3465H17.174C17.2602 17.3388 17.3471 17.349 17.4292 17.3766C17.5112 17.4042 17.5866 17.4486 17.6505 17.5068C17.7144 17.5651 17.7655 17.636 17.8004 17.715C17.8353 17.794 17.8533 17.8794 17.8533 17.9658C17.8533 18.0521 17.8353 18.1376 17.8004 18.2166C17.7655 18.2956 17.7144 18.3665 17.6505 18.4247C17.5866 18.483 17.5112 18.5273 17.4292 18.5549C17.3471 18.5825 17.2602 18.5928 17.174 18.5851H17.2092Z" fill="#F8D24E"/>
<g id="ce">
<mask id="path-3-outside-1_0_1" maskUnits="userSpaceOnUse" x="15.1924" y="27.3076" width="23" height="11" fill="black">
<rect fill="white" x="15.1924" y="27.3076" width="23" height="11"/>
<path d="M24.1897 31.0932C22.0207 31.0932 20.9361 31.5701 20.9361 32.5239C20.9361 33.0371 21.1516 33.4341 21.5825 33.7149C22.0183 33.9909 22.6549 34.1289 23.4925 34.1289C24.335 34.1289 25.1556 34.0611 25.9545 33.9255L26.0054 36.2132C25.0854 36.4553 24.0832 36.5763 22.9987 36.5763C21.9142 36.5763 21.0039 36.4916 20.268 36.3221C19.5321 36.1575 18.9559 35.9735 18.5395 35.7702C18.1232 35.5668 17.7552 35.3296 17.4356 35.0585C16.7481 34.4775 16.4068 33.7028 16.4116 32.7345C16.4116 32.1341 16.5303 31.5919 16.7675 31.1077C17.2032 30.2217 17.9634 29.5729 19.0479 29.1613C20.1324 28.745 21.3283 28.5368 22.6356 28.5368C23.9428 28.5368 25.1823 28.682 26.354 28.9725L26.1724 31.3038C25.4316 31.1634 24.7707 31.0932 24.1897 31.0932ZM33.567 31.7613C33.5622 31.3062 33.4557 30.9842 33.2475 30.7954C33.0441 30.6066 32.744 30.5122 32.3469 30.5122C31.9548 30.5122 31.6376 30.6308 31.3956 30.868C31.1535 31.1004 31.0034 31.3933 30.9453 31.7468L33.567 31.7613ZM36.4139 35.7121C36.1137 35.9397 35.5787 36.1382 34.8089 36.3076C34.0391 36.4819 33.2911 36.5691 32.5648 36.5691C31.8434 36.5691 31.2309 36.5352 30.7274 36.4674C30.2239 36.3996 29.7252 36.2786 29.2313 36.1043C28.7375 35.9251 28.3138 35.7 27.9604 35.4289C27.6118 35.1529 27.3286 34.797 27.1107 34.3613C26.8928 33.9207 26.7839 33.3954 26.7839 32.7853C26.7839 32.1704 26.8952 31.6064 27.118 31.0932C27.3407 30.5799 27.6288 30.166 27.9822 29.8513C28.9651 28.9749 30.3885 28.5368 32.2525 28.5368C33.1386 28.5368 33.981 28.7062 34.7799 29.0451C35.5787 29.3937 36.1476 29.9166 36.4865 30.6138C36.6802 31.006 36.777 31.4393 36.777 31.9138L36.6899 33.1121L30.8 33.0831C30.9162 33.5237 31.1971 33.8698 31.6425 34.1216C32.0928 34.3734 32.7052 34.4993 33.4799 34.4993C34.2546 34.4993 35.1478 34.2887 36.1597 33.8674H36.5519L36.4139 35.7121Z"/>
</mask>
<path d="M21.5825 33.7149L21.1764 34.338L21.1846 34.3432L21.5825 33.7149ZM25.9545 33.9255L26.698 33.909L26.6789 33.0483L25.8301 33.1923L25.9545 33.9255ZM26.0054 36.2132L26.1946 36.9324L26.7619 36.7831L26.7488 36.1967L26.0054 36.2132ZM20.268 36.3221L20.4349 35.5974L20.4303 35.5964L20.268 36.3221ZM17.4356 35.0585L17.9168 34.4914L17.9157 34.4905L17.4356 35.0585ZM16.4116 32.7345L17.1553 32.7382V32.7345H16.4116ZM16.7675 31.1077L16.1002 30.7795L16.0997 30.7805L16.7675 31.1077ZM19.0479 29.1613L19.3117 29.8567L19.3145 29.8556L19.0479 29.1613ZM26.354 28.9725L27.0954 29.0303L27.1443 28.4023L26.5329 28.2507L26.354 28.9725ZM26.1724 31.3038L26.0339 32.0344L26.8494 32.189L26.9138 31.3615L26.1724 31.3038ZM24.1897 30.3495C23.0737 30.3495 22.1355 30.4687 21.4502 30.7701C21.099 30.9245 20.7795 31.1418 20.5469 31.4487C20.3069 31.7652 20.1925 32.134 20.1925 32.5239H21.6798C21.6798 32.4368 21.7009 32.3884 21.7321 32.3472C21.7706 32.2964 21.8578 32.2156 22.0489 32.1316C22.4481 31.9561 23.1368 31.8368 24.1897 31.8368V30.3495ZM20.1925 32.5239C20.1925 33.2892 20.5355 33.9203 21.1765 34.338L21.9885 33.0919C21.7677 32.9479 21.6798 32.785 21.6798 32.5239H20.1925ZM21.1846 34.3432C21.7923 34.728 22.5935 34.8726 23.4925 34.8726V33.3852C22.7164 33.3852 22.2443 33.2537 21.9804 33.0866L21.1846 34.3432ZM23.4925 34.8726C24.375 34.8726 25.2374 34.8015 26.0789 34.6587L25.8301 33.1923C25.0739 33.3207 24.2949 33.3852 23.4925 33.3852V34.8726ZM25.211 33.942L25.2619 36.2297L26.7488 36.1967L26.698 33.909L25.211 33.942ZM25.8161 35.494C24.9659 35.7178 24.0281 35.8327 22.9987 35.8327V37.32C24.1383 37.32 25.205 37.1928 26.1946 36.9324L25.8161 35.494ZM22.9987 35.8327C21.9482 35.8327 21.0981 35.7501 20.4349 35.5974L20.1011 37.0469C20.9098 37.2331 21.8801 37.32 22.9987 37.32V35.8327ZM20.4303 35.5964C19.7205 35.4376 19.2078 35.269 18.8659 35.102L18.2132 36.4384C18.704 36.6781 19.3436 36.8774 20.1057 37.0479L20.4303 35.5964ZM18.8659 35.102C18.4993 34.9229 18.1845 34.7185 17.9168 34.4914L16.9545 35.6255C17.3259 35.9407 17.747 36.2108 18.2132 36.4384L18.8659 35.102ZM17.9157 34.4905C17.4103 34.0634 17.1515 33.5053 17.1553 32.7382L15.668 32.7308C15.6621 33.9003 16.0859 34.8915 16.9556 35.6265L17.9157 34.4905ZM17.1553 32.7345C17.1553 32.2345 17.2534 31.8061 17.4353 31.4349L16.0997 30.7805C15.8071 31.3776 15.668 32.0337 15.668 32.7345H17.1553ZM17.4348 31.4359C17.7731 30.748 18.3705 30.2138 19.3117 29.8566L18.7841 28.466C17.5562 28.932 16.6333 29.6953 16.1002 30.7795L17.4348 31.4359ZM19.3145 29.8556C20.3039 29.4757 21.4081 29.2805 22.6356 29.2805V27.7931C21.2485 27.7931 19.9609 28.0142 18.7814 28.4671L19.3145 29.8556ZM22.6356 29.2805C23.8874 29.2805 25.0665 29.4195 26.175 29.6943L26.5329 28.2507C25.2981 27.9445 23.9982 27.7931 22.6356 27.7931V29.2805ZM25.6125 28.9148L25.431 31.246L26.9138 31.3615L27.0954 29.0303L25.6125 28.9148ZM26.3109 30.5731C25.5371 30.4264 24.8285 30.3495 24.1897 30.3495V31.8368C24.7129 31.8368 25.3261 31.9003 26.0339 32.0344L26.3109 30.5731ZM33.567 31.7613L33.5629 32.505L34.3187 32.5092L34.3107 31.7534L33.567 31.7613ZM33.2475 30.7954L32.7414 31.3404L32.7479 31.3463L33.2475 30.7954ZM31.3956 30.868L31.9106 31.4045L31.9161 31.3992L31.3956 30.868ZM30.9453 31.7468L30.2115 31.6262L30.0702 32.4856L30.9412 32.4905L30.9453 31.7468ZM36.4139 35.7121L36.8632 36.3047L37.1305 36.1021L37.1555 35.7676L36.4139 35.7121ZM34.8089 36.3076L34.649 35.5813L34.6447 35.5823L34.8089 36.3076ZM29.2313 36.1043L28.9777 36.8034L28.9838 36.8055L29.2313 36.1043ZM27.9604 35.4289L27.4988 36.012L27.5078 36.0189L27.9604 35.4289ZM27.1107 34.3613L26.4441 34.6909L26.4455 34.6939L27.1107 34.3613ZM27.9822 29.8513L28.4767 30.4067L28.4771 30.4064L27.9822 29.8513ZM34.7799 29.0451L35.0773 28.3635L35.0703 28.3605L34.7799 29.0451ZM36.4865 30.6138L35.8177 30.939L35.8197 30.9431L36.4865 30.6138ZM36.777 31.9138L37.5188 31.9678L37.5207 31.9408V31.9138H36.777ZM36.6899 33.1121L36.6862 33.8558L37.3812 33.8592L37.4316 33.1661L36.6899 33.1121ZM30.8 33.0831L30.8037 32.3394L29.8335 32.3346L30.0809 33.2727L30.8 33.0831ZM31.6425 34.1216L31.2765 34.769L31.2795 34.7707L31.6425 34.1216ZM36.1597 33.8674V33.1238H36.0111L35.8739 33.1809L36.1597 33.8674ZM36.5519 33.8674L37.2935 33.9229L37.3533 33.1238H36.5519V33.8674ZM34.3107 31.7534C34.3049 31.2155 34.1813 30.6383 33.7471 30.2445L32.7479 31.3463C32.7391 31.3383 32.7562 31.3478 32.7775 31.4121C32.8 31.4802 32.8215 31.5939 32.8234 31.7692L34.3107 31.7534ZM33.7535 30.2504C33.3632 29.888 32.8512 29.7685 32.3469 29.7685V31.2558C32.6367 31.2558 32.725 31.3251 32.7415 31.3404L33.7535 30.2504ZM32.3469 29.7685C31.7931 29.7685 31.278 29.942 30.875 30.3369L31.9161 31.3992C31.9973 31.3196 32.1164 31.2558 32.3469 31.2558V29.7685ZM30.8805 30.3315C30.5144 30.683 30.2938 31.1255 30.2115 31.6262L31.6791 31.8674C31.713 31.6612 31.7925 31.5179 31.9106 31.4045L30.8805 30.3315ZM30.9412 32.4905L33.5629 32.505L33.5712 31.0176L30.9494 31.0031L30.9412 32.4905ZM35.9647 35.1195C35.8016 35.243 35.404 35.4151 34.649 35.5813L34.9688 37.0339C35.7535 36.8612 36.4258 36.6363 36.8632 36.3047L35.9647 35.1195ZM34.6447 35.5823C33.9241 35.7454 33.2313 35.8254 32.5648 35.8254V37.3127C33.3509 37.3127 34.1541 37.2184 34.9731 37.0329L34.6447 35.5823ZM32.5648 35.8254C31.864 35.8254 31.2868 35.7923 30.8266 35.7304L30.6282 37.2044C31.1751 37.278 31.8228 37.3127 32.5648 37.3127V35.8254ZM30.8266 35.7304C30.3752 35.6696 29.9261 35.5608 29.4789 35.403L28.9838 36.8055C29.5243 36.9963 30.0726 37.1296 30.6282 37.2044L30.8266 35.7304ZM29.4849 35.4052C29.0502 35.2474 28.6964 35.0562 28.4131 34.8388L27.5078 36.0189C27.9313 36.3438 28.4248 36.6028 28.9777 36.8034L29.4849 35.4052ZM28.422 34.8458C28.1667 34.6437 27.9498 34.3765 27.7759 34.0287L26.4455 34.6939C26.7074 35.2176 27.0569 35.6621 27.4988 36.0119L28.422 34.8458ZM27.7773 34.0316C27.6209 33.7153 27.5276 33.308 27.5276 32.7853H26.0402C26.0402 33.4827 26.1648 34.1261 26.4441 34.6909L27.7773 34.0316ZM27.5276 32.7853C27.5276 32.2621 27.6219 31.8001 27.8002 31.3892L26.4358 30.7971C26.1686 31.4126 26.0402 32.0787 26.0402 32.7853H27.5276ZM27.8002 31.3892C27.9876 30.9572 28.2173 30.6377 28.4767 30.4067L27.4877 29.2959C27.0402 29.6943 26.6937 30.2027 26.4358 30.7971L27.8002 31.3892ZM28.4771 30.4064C29.2764 29.6937 30.4956 29.2805 32.2525 29.2805V27.7931C30.2814 27.7931 28.6537 28.2562 27.4873 29.2962L28.4771 30.4064ZM32.2525 29.2805C33.0409 29.2805 33.7844 29.4307 34.4894 29.7298L35.0703 28.3605C34.1776 27.9818 33.2362 27.7931 32.2525 27.7931V29.2805ZM34.4824 29.7268C35.1405 30.0139 35.5659 30.421 35.8177 30.939L37.1554 30.2887C36.7294 29.4123 36.0169 28.7736 35.0773 28.3635L34.4824 29.7268ZM35.8197 30.9431C35.9586 31.2244 36.0334 31.5437 36.0334 31.9138H37.5207C37.5207 31.335 37.4018 30.7876 37.1534 30.2846L35.8197 30.9431ZM36.0353 31.8599L35.9482 33.0582L37.4316 33.1661L37.5188 31.9678L36.0353 31.8599ZM36.6936 32.3685L30.8037 32.3394L30.7964 33.8267L36.6862 33.8558L36.6936 32.3685ZM30.0809 33.2727C30.2548 33.932 30.68 34.4319 31.2766 34.769L32.0084 33.4742C31.7141 33.3078 31.5777 33.1154 31.5191 32.8934L30.0809 33.2727ZM31.2795 34.7707C31.8827 35.108 32.637 35.2429 33.4799 35.2429V33.7556C32.7735 33.7556 32.3028 33.6388 32.0054 33.4725L31.2795 34.7707ZM33.4799 35.2429C34.3844 35.2429 35.3778 34.9984 36.4455 34.554L35.8739 33.1809C34.9178 33.5789 34.1247 33.7556 33.4799 33.7556V35.2429ZM36.1597 34.6111H36.5519V33.1238H36.1597V34.6111ZM35.8103 33.812L35.6723 35.6566L37.1555 35.7676L37.2935 33.9229L35.8103 33.812Z" fill="#F8D24E" mask="url(#path-3-outside-1_0_1)"/>
</g>
</g>
</g>
</g>
</g>
<defs>
<clipPath id="clip0_0_1">
<rect width="320" height="6603" fill="white" transform="translate(-22 -12)"/>
</clipPath>
</defs>
</svg>
